<svg xmlns="http://www.w3.org/2000/svg" width="1280" height="720" viewBox="0 0 100 100" preserveAspectRatio="none"><path d="M49 43 L45 32 L48 24 L38 12 L30 0 M45 32 L35 26 L22 18 M49 43 L56 32 L53 20 L66 10 L75 0 M56 32 L68 25 L82 14 M49 43 L64 42 L74 38 L88 40 L100 36 M74 38 L83 48 L100 52 M49 43 L55 56 L67 68 L71 82 L82 100 M67 68 L80 76 L94 86 M49 43 L42 55 L45 70 L34 84 L24 100 M42 55 L30 66 L15 78 M49 43 L36 45 L25 41 L14 47 L0 43 M25 41 L17 31 L0 24" fill="none" stroke="#70b8ff" stroke-width="1"/><path d="M49 43 L45 32 L48 24 L38 12 L30 0 M49 43 L56 32 L53 20 L66 10 L75 0 M49 43 L64 42 L74 38 L88 40 L100 36 M49 43 L55 56 L67 68 L71 82 L82 100 M49 43 L42 55 L45 70 L34 84 L24 100 M49 43 L36 45 L25 41 L14 47 L0 43" fill="none" stroke="#fff" stroke-width=".3"/></svg>
